<svg xmlns="http://www.w3.org/2000/svg" width="128" height="128" viewBox="0 0 128 128">
  <title>Design Tools</title>
  <path d="M117.167,28.789a6.584,6.584,0,1,0-6.34-8.333H71.55V16.405a1.751,1.751,0,0,0-1.75-1.75H58.2a1.751,1.751,0,0,0-1.75,1.75v4.352h-39.2a6.583,6.583,0,1,0-.166,3.5H43.192c-17.1,6.5-29.62,20.763-32.513,38.211H6a1.751,1.751,0,0,0-1.75,1.75v11.6A1.75,1.75,0,0,0,6,77.568H17.6a1.75,1.75,0,0,0,1.75-1.75v-11.6a1.751,1.751,0,0,0-1.75-1.75H14.22C17.771,42.7,34.735,27.433,56.45,24.48v3.525a1.75,1.75,0,0,0,1.75,1.75h2.525L34.218,69.4a1.751,1.751,0,0,0-.114,1.747L46.222,95.706a21.135,21.135,0,0,0-7.206,15.975,1.751,1.751,0,0,0,1.748,1.664H87.236a1.75,1.75,0,0,0,1.748-1.664,21.135,21.135,0,0,0-7.206-15.975L93.9,71.142a1.751,1.751,0,0,0-.114-1.747L67.275,29.755H69.8a1.75,1.75,0,0,0,1.75-1.75V24.48c21.715,2.953,38.679,18.223,42.23,37.988H110.4a1.751,1.751,0,0,0-1.75,1.75v11.6a1.75,1.75,0,0,0,1.75,1.75H122a1.75,1.75,0,0,0,1.75-1.75v-11.6a1.751,1.751,0,0,0-1.75-1.75h-4.679C114.383,44.745,101.513,30.307,84,23.956h26.829A6.589,6.589,0,0,0,117.167,28.789ZM15.85,74.068H7.75v-8.1h8.1Zm104.4,0h-8.1v-8.1h8.1Zm-3.083-54.946a3.084,3.084,0,1,1-3.084,3.084A3.087,3.087,0,0,1,117.167,19.122ZM10.833,25.289a3.084,3.084,0,1,1,3.084-3.083A3.086,3.086,0,0,1,10.833,25.289ZM64,64.284a5.734,5.734,0,1,1-5.734,5.735A5.74,5.74,0,0,1,64,64.284Zm21.416,45.561H42.593A17.571,17.571,0,0,1,49,97.926H79A17.435,17.435,0,0,1,85.416,109.845ZM78.507,94.426H49.493L37.689,70.5,62.25,33.771V60.956a9.234,9.234,0,1,0,3.5,0V33.771L90.311,70.5ZM68.05,26.255h-8.1v-8.1h8.1Z"/>
</svg>
