<svg xmlns="http://www.w3.org/2000/svg" viewBox="0 0 64 64"><defs><style>.cls-1{fill:#272835;}</style></defs><title>5-Chatting</title><g id="_5-Chatting" data-name="5-Chatting"><path class="cls-1" d="M25,20H41v6h2V19a1,1,0,0,0-1-1H24a1,1,0,0,0-1,1V29a1,1,0,0,0,1,1H53V28H25Z"/><path class="cls-1" d="M41,43V33a1,1,0,0,0-1-1H22a1,1,0,0,0-1,1v7h2V34H39v8H11v2H40A1,1,0,0,0,41,43Z"/><rect class="cls-1" x="55" y="28" width="2" height="2"/><rect class="cls-1" x="7" y="42" width="2" height="2"/><path class="cls-1" d="M49,50H15V46H13V62a2,2,0,0,0,2,2H49a2,2,0,0,0,2-2V32H49Zm0,12H15V52H49Z"/><path class="cls-1" d="M15,12H49V26h2V2a2,2,0,0,0-2-2H15a2,2,0,0,0-2,2V40h2ZM15,2H49v8H15Z"/><path class="cls-1" d="M32,60a3,3,0,1,0-3-3A3,3,0,0,0,32,60Zm0-4a1,1,0,1,1-1,1A1,1,0,0,1,32,56Z"/><rect class="cls-1" x="36" y="5" width="2" height="2"/><rect class="cls-1" x="26" y="5" width="8" height="2"/><rect class="cls-1" x="40" y="5" width="2" height="2"/><path class="cls-1" d="M17,47a1,1,0,0,0,1,1H46a1,1,0,0,0,1-1V32H45V46H17Z"/><path class="cls-1" d="M47,26V15a1,1,0,0,0-1-1H18a1,1,0,0,0-1,1V40h2V16H45V26Z"/><rect class="cls-1" x="36" y="23" width="2" height="2"/><rect class="cls-1" x="28" y="23" width="6" height="2"/><rect class="cls-1" x="30" y="37" width="6" height="2"/><rect class="cls-1" x="26" y="37" width="2" height="2"/></g></svg>