<?xml version="1.0" encoding="iso-8859-1"?>
<!-- Generator: Adobe Illustrator 21.0.2, SVG Export Plug-In . SVG Version: 6.00 Build 0)  -->
<svg version="1.1" xmlns="http://www.w3.org/2000/svg" xmlns:xlink="http://www.w3.org/1999/xlink" x="0px" y="0px"
	 viewBox="0 0 64 64" style="enable-background:new 0 0 64 64;" xml:space="preserve">
<g id="css">
</g>
<g id="mobile_development">
	<g>
		<path d="M25.4688,57.6191h-5.3486c-0.5527,0-1,0.4473-1,1s0.4473,1,1,1h5.3486c0.5527,0,1-0.4473,1-1
			S26.0215,57.6191,25.4688,57.6191z"/>
		<path d="M20.1201,6.2236h5.3486c0.5527,0,1-0.4473,1-1s-0.4473-1-1-1h-5.3486c-0.5527,0-1,0.4473-1,1
			S19.5674,6.2236,20.1201,6.2236z"/>
		<path d="M56.1611,13.5186H41.8408V8.3994C41.8408,4.3193,38.5215,1,34.4414,1H11.1475C7.0684,1,3.749,4.3193,3.749,8.3994v47.1982
			C3.749,59.6797,7.0684,63,11.1475,63h23.2939c4.0801,0,7.3994-3.3203,7.3994-7.4023V49.917h14.3203
			c2.2549,0,4.0898-1.833,4.0898-4.0869V17.6084C60.251,15.3535,58.416,13.5186,56.1611,13.5186z M11.1475,3h23.2939
			c2.6866,0,4.9026,1.9773,5.3135,4.5498h-33.92C6.2458,4.9773,8.4617,3,11.1475,3z M34.4414,61H11.1475
			c-2.8784,0-5.2311-2.2684-5.3837-5.1113H39.826C39.6735,58.7316,37.3207,61,34.4414,61z M39.8408,53.8887H5.749V9.5498h34.0918
			v3.9688h-2.1855c-2.2539,0-4.0869,1.835-4.0869,4.0898v28.2217c0,2.2539,1.833,4.0869,4.0869,4.0869h2.1855V53.8887z
			 M58.251,45.8301c0,1.1504-0.9375,2.0869-2.0898,2.0869H37.6553c-1.1504,0-2.0869-0.9365-2.0869-2.0869V17.6084
			c0-1.1523,0.9365-2.0898,2.0869-2.0898h18.5059c1.1523,0,2.0898,0.9375,2.0898,2.0898V45.8301z"/>
		<path d="M43.6445,38.8857c-0.3457-0.4287-0.9756-0.499-1.4063-0.1504l-3.0996,2.501c-0.2354,0.1895-0.3721,0.4756-0.3721,0.7783
			c0,0.3018,0.1367,0.5879,0.3711,0.7773l3.0996,2.5049c0.1855,0.1504,0.4072,0.2227,0.6279,0.2227
			c0.292,0,0.5811-0.127,0.7783-0.3711c0.3477-0.4297,0.2803-1.0596-0.1484-1.4063l-2.1367-1.7266l2.1357-1.7236
			C43.9238,39.9453,43.9912,39.3154,43.6445,38.8857z"/>
		<path d="M47.9697,38.5723c-0.5234-0.1904-1.0928,0.085-1.2773,0.6055l-1.7861,5.0059c-0.1865,0.5205,0.085,1.0918,0.6055,1.2773
			c0.1113,0.04,0.2246,0.0586,0.3359,0.0586c0.4111,0,0.7959-0.2549,0.9414-0.6641l1.7861-5.0059
			C48.7617,39.3291,48.4902,38.7578,47.9697,38.5723z"/>
		<path d="M51.2285,38.7354c-0.4307-0.3486-1.0605-0.2783-1.4063,0.1504c-0.3467,0.4297-0.2793,1.0596,0.1504,1.4063l2.1367,1.7236
			l-2.1377,1.7256c-0.4287,0.3477-0.4961,0.9775-0.1494,1.4072c0.1982,0.2441,0.4873,0.3711,0.7793,0.3711
			c0.2207,0,0.4424-0.0723,0.6279-0.2217l3.1006-2.5049c0.2344-0.1904,0.3711-0.4766,0.3711-0.7783
			c0-0.3027-0.1367-0.5889-0.3721-0.7783L51.2285,38.7354z"/>
		<path d="M20.9658,13.5625h-3.6172c-0.5527,0-1,0.4473-1,1v3.8291c0,0.5527,0.4473,1,1,1h3.6172c0.5527,0,1-0.4473,1-1v-3.8291
			C21.9658,14.0098,21.5186,13.5625,20.9658,13.5625z M19.9658,17.3916h-1.6172v-1.8291h1.6172V17.3916z"/>
		<path d="M12.9102,13.5625H9.293c-0.5527,0-1,0.4473-1,1v3.8291c0,0.5527,0.4473,1,1,1h3.6172c0.5527,0,1-0.4473,1-1v-3.8291
			C13.9102,14.0098,13.4629,13.5625,12.9102,13.5625z M11.9102,17.3916H10.293v-1.8291h1.6172V17.3916z"/>
		<path d="M20.9658,22.7686h-3.6172c-0.5527,0-1,0.4473-1,1v3.8291c0,0.5527,0.4473,1,1,1h3.6172c0.5527,0,1-0.4473,1-1v-3.8291
			C21.9658,23.2158,21.5186,22.7686,20.9658,22.7686z M19.9658,26.5977h-1.6172v-1.8291h1.6172V26.5977z"/>
		<path d="M12.9102,22.7686H9.293c-0.5527,0-1,0.4473-1,1v3.8291c0,0.5527,0.4473,1,1,1h3.6172c0.5527,0,1-0.4473,1-1v-3.8291
			C13.9102,23.2158,13.4629,22.7686,12.9102,22.7686z M11.9102,26.5977H10.293v-1.8291h1.6172V26.5977z"/>
		<path d="M12.9102,31.9766H9.293c-0.5527,0-1,0.4473-1,1v3.8301c0,0.5527,0.4473,1,1,1h3.6172c0.5527,0,1-0.4473,1-1v-3.8301
			C13.9102,32.4238,13.4629,31.9766,12.9102,31.9766z M11.9102,35.8066H10.293v-1.8301h1.6172V35.8066z"/>
		<path d="M54.7783,20.0371H39.041c-0.5527,0-1,0.4473-1,1s0.4473,1,1,1h15.7373c0.5527,0,1-0.4473,1-1
			S55.3311,20.0371,54.7783,20.0371z"/>
		<path d="M54.7783,26.3203H39.041c-0.5527,0-1,0.4473-1,1s0.4473,1,1,1h15.7373c0.5527,0,1-0.4473,1-1
			S55.3311,26.3203,54.7783,26.3203z"/>
		<path d="M54.7783,32.6035H39.041c-0.5527,0-1,0.4473-1,1s0.4473,1,1,1h15.7373c0.5527,0,1-0.4473,1-1
			S55.3311,32.6035,54.7783,32.6035z"/>
		<path d="M29.0215,13.5625h-3.6172c-0.5527,0-1,0.4473-1,1v3.8291c0,0.5527,0.4473,1,1,1h3.6172c0.5527,0,1-0.4473,1-1v-3.8291
			C30.0215,14.0098,29.5742,13.5625,29.0215,13.5625z M28.0215,17.3916h-1.6172v-1.8291h1.6172V17.3916z"/>
		<path d="M29.0215,22.7686h-3.6172c-0.5527,0-1,0.4473-1,1v3.8291c0,0.5527,0.4473,1,1,1h3.6172c0.5527,0,1-0.4473,1-1v-3.8291
			C30.0215,23.2158,29.5742,22.7686,29.0215,22.7686z M28.0215,26.5977h-1.6172v-1.8291h1.6172V26.5977z"/>
		<path d="M20.9658,31.9766h-3.6172c-0.5527,0-1,0.4473-1,1v3.8301c0,0.5527,0.4473,1,1,1h3.6172c0.5527,0,1-0.4473,1-1v-3.8301
			C21.9658,32.4238,21.5186,31.9766,20.9658,31.9766z M19.9658,35.8066h-1.6172v-1.8301h1.6172V35.8066z"/>
		<path d="M12.9102,41.1826H9.293c-0.5527,0-1,0.4473-1,1v3.8291c0,0.5527,0.4473,1,1,1h3.6172c0.5527,0,1-0.4473,1-1v-3.8291
			C13.9102,41.6299,13.4629,41.1826,12.9102,41.1826z M11.9102,45.0117H10.293v-1.8291h1.6172V45.0117z"/>
	</g>
</g>
<g id="code">
</g>
<g id="hardware_programming">
</g>
<g id="python">
</g>
<g id="development">
</g>
<g id="update">
</g>
<g id="maintenance">
</g>
<g id="peformance_testing">
</g>
<g id="programming">
</g>
<g id="hacker">
</g>
<g id="web_programming">
</g>
<g id="html">
</g>
<g id="typing">
</g>
<g id="search_1_">
</g>
<g id="android">
</g>
<g id="coding">
</g>
<g id="file">
</g>
<g id="api">
</g>
<g id="java">
</g>
<g id="xml">
</g>
<g id="security">
</g>
<g id="algorithm">
</g>
<g id="php">
</g>
<g id="eror">
</g>
<g id="bug">
</g>
<g id="c_x2B__x2B_">
</g>
<g id="search">
</g>
<g id="binary">
</g>
<g id="database_sql">
</g>
</svg>
