<?xml version="1.0" standalone="no"?>
<!DOCTYPE svg PUBLIC "-//W3C//DTD SVG 20010904//EN"
 "http://www.w3.org/TR/2001/REC-SVG-20010904/DTD/svg10.dtd">
<svg version="1.0" xmlns="http://www.w3.org/2000/svg"
 width="50.000000pt" height="50.000000pt" viewBox="0 0 50.000000 50.000000"
 preserveAspectRatio="xMidYMid meet">

<g transform="translate(0.000000,50.000000) scale(0.100000,-0.100000)"
fill="#F8312F" stroke="none">
<path d="M69 432 c-35 -36 -38 -42 -29 -71 16 -57 59 -119 132 -192 74 -72
133 -113 189 -129 29 -9 35 -6 71 29 21 22 36 45 33 53 -3 7 -29 28 -57 45
-49 29 -55 30 -80 17 -15 -8 -30 -14 -33 -14 -10 0 -106 93 -116 112 -7 12 -5
26 5 46 13 26 12 31 -17 80 -17 28 -38 54 -45 57 -8 3 -31 -12 -53 -33z"/>
</g>
</svg>
