<svg xmlns="http://www.w3.org/2000/svg" viewBox="0 0 32 32"><title>9-Video</title><g id="_9-Video" data-name="9-Video"><path d="M29,27H3a3,3,0,0,1-3-3V3A3,3,0,0,1,3,0H29a2.916,2.916,0,0,1,3,3V24A3,3,0,0,1,29,27ZM28.988,2H3A1,1,0,0,0,2,3V24a1,1,0,0,0,1,1H29a1,1,0,0,0,1-1V3A.919.919,0,0,0,28.988,2Z"/><path d="M10,32a1,1,0,0,1,0-2c1.914,0,2-3.96,2-4a1,1,0,0,1,2,0C14,28.229,13.158,32,10,32Z"/><path d="M22,32c-3.158,0-4-3.771-4-6a1,1,0,0,1,1-1h0a1,1,0,0,1,1,1c0,.04.066,4,2,4a1,1,0,0,1,0,2Z"/><path d="M24,32H8a1,1,0,0,1,0-2H24a1,1,0,0,1,0,2Z"/><circle cx="26" cy="19" r="1"/><path d="M22,20H6a1,1,0,0,1,0-2H22a1,1,0,0,1,0,2Z"/><path d="M13,14a1,1,0,0,1-1-1V7a1,1,0,0,1,1.447-.895l6,3a1,1,0,0,1,0,1.79l-6,3A1,1,0,0,1,13,14Zm1-5.382v2.764L16.764,10Z"/></g></svg>