<svg xmlns="http://www.w3.org/2000/svg" width="128" height="128" viewBox="0 0 128 128">
  <title>Html</title>
  <path d="M73.609,53.117a1.753,1.753,0,0,0-2.311.888l-17.8,40a1.751,1.751,0,0,0,3.2,1.423l17.8-40A1.752,1.752,0,0,0,73.609,53.117Z"/>
  <path d="M114,15.25H14A9.761,9.761,0,0,0,4.25,25v77A10.762,10.762,0,0,0,15,112.75h98A10.762,10.762,0,0,0,123.75,102V25A9.761,9.761,0,0,0,114,15.25ZM120.25,25V36.683H52.888L61.37,18.75H114A6.257,6.257,0,0,1,120.25,25ZM14,18.75H57.5L49.016,36.683H7.75V25A6.257,6.257,0,0,1,14,18.75Zm99,90.5H15A7.258,7.258,0,0,1,7.75,102V40.183h112.5V102A7.258,7.258,0,0,1,113,109.25Z"/>
  <path d="M21.57,33.466a5.75,5.75,0,1,0-5.75-5.75A5.756,5.756,0,0,0,21.57,33.466Zm0-8a2.25,2.25,0,1,1-2.25,2.25A2.253,2.253,0,0,1,21.57,25.466Z"/>
  <path d="M37.626,33.466a5.75,5.75,0,1,0-5.75-5.75A5.756,5.756,0,0,0,37.626,33.466Zm0-8a2.25,2.25,0,1,1-2.25,2.25A2.253,2.253,0,0,1,37.626,25.466Z"/>
  <path d="M67.522,29.466h44.745a1.75,1.75,0,0,0,0-3.5H67.522a1.75,1.75,0,0,0,0,3.5Z"/>
  <path d="M46,58.772a1.749,1.749,0,0,0-2.454-.32L27.933,70.46a1.75,1.75,0,0,0,0,2.774L43.546,85.242a1.75,1.75,0,0,0,2.134-2.774L31.871,71.847,45.68,61.226A1.749,1.749,0,0,0,46,58.772Z"/>
  <path d="M100.067,70.46,84.454,58.452a1.75,1.75,0,0,0-2.134,2.774L96.129,71.847,82.32,82.468a1.75,1.75,0,1,0,2.134,2.774l15.613-12.008a1.75,1.75,0,0,0,0-2.774Z"/>
</svg>
