<svg xmlns="http://www.w3.org/2000/svg" viewBox="0 0 48 48"><title>27-web design</title><g id="_27-web_design" data-name="27-web design"><path d="M45,40H3a3,3,0,0,1-3-3V11A3,3,0,0,1,3,8H6v2H3a1,1,0,0,0-1,1V37a1,1,0,0,0,1,1H45a1,1,0,0,0,1-1V11a1,1,0,0,0-1-1H42V8h3a3,3,0,0,1,3,3V37A3,3,0,0,1,45,40Z"/><rect x="15" y="39" width="2" height="4"/><path d="M13,47H11V45a3,3,0,0,1,3-3H24v2H14a1,1,0,0,0-1,1Z"/><rect x="31" y="39" width="2" height="4"/><path d="M37,47H35V45a1,1,0,0,0-1-1H29V42h5a3,3,0,0,1,3,3Z"/><rect x="9" y="46" width="30" height="2"/><path d="M40,36H8a3,3,0,0,1-3-3V9A3,3,0,0,1,8,6H18V8H8A1,1,0,0,0,7,9V33a1,1,0,0,0,1,1H40a1,1,0,0,0,1-1V9a1,1,0,0,0-1-1H30V6H40a3,3,0,0,1,3,3V33A3,3,0,0,1,40,36Z"/><rect x="1" y="30" width="5" height="2"/><rect x="42" y="30" width="5" height="2"/><path d="M28.814,26.581l-1.628-1.162,4.619-6.467L24,5.943,16.2,18.952l4.619,6.467-1.628,1.162-5-7a1,1,0,0,1-.043-1.1l9-15a1.04,1.04,0,0,1,1.714,0l9,15a1,1,0,0,1-.043,1.1Z"/><path d="M31,31H17a1,1,0,0,1-1-1V26a1,1,0,0,1,1-1H31a1,1,0,0,1,1,1v4A1,1,0,0,1,31,31ZM18,29H30V27H18Z"/><rect x="18" y="30" width="2" height="5"/><rect x="28" y="30" width="2" height="5"/><path d="M24,23a2,2,0,1,1,2-2A2,2,0,0,1,24,23Zm0-2h0Z"/><rect x="23" y="4" width="2" height="16"/><path d="M38,14H36a12,12,0,0,0-24,0H10a14,14,0,0,1,28,0Z"/><path d="M11,19a3,3,0,1,1,3-3A3,3,0,0,1,11,19Zm0-4a1,1,0,1,0,1,1A1,1,0,0,0,11,15Z"/><path d="M37,19a3,3,0,1,1,3-3A3,3,0,0,1,37,19Zm0-4a1,1,0,1,0,1,1A1,1,0,0,0,37,15Z"/><rect x="9" y="30" width="2" height="2"/><rect x="9" y="26" width="2" height="2"/><rect x="13" y="30" width="2" height="2"/><rect x="33" y="30" width="2" height="2"/><rect x="37" y="30" width="2" height="2"/><rect x="37" y="26" width="2" height="2"/></g></svg>